<?xml version="1.0" encoding="UTF-8" standalone="no"?>
<svg
   id="Capa_1"
   data-name="Capa 1"
   viewBox="0 0 64 64"
   version="1.1"
   sodipodi:docname="pardus-xfce-greeter.svg"
   inkscape:version="1.3 (0e150ed6c4, 2023-07-21)"
   xmlns:inkscape="http://www.inkscape.org/namespaces/inkscape"
   xmlns:sodipodi="http://sodipodi.sourceforge.net/DTD/sodipodi-0.dtd"
   xmlns="http://www.w3.org/2000/svg"
   xmlns:svg="http://www.w3.org/2000/svg">
  <sodipodi:namedview
     id="namedview4"
     pagecolor="#ffffff"
     bordercolor="#000000"
     borderopacity="0.25"
     inkscape:showpageshadow="2"
     inkscape:pageopacity="0.0"
     inkscape:pagecheckerboard="0"
     inkscape:deskcolor="#d1d1d1"
     inkscape:zoom="5.1099514"
     inkscape:cx="13.307367"
     inkscape:cy="49.021993"
     inkscape:window-width="1920"
     inkscape:window-height="1127"
     inkscape:window-x="0"
     inkscape:window-y="0"
     inkscape:window-maximized="1"
     inkscape:current-layer="Capa_1" />
  <defs
     id="defs1">
    <style
       id="style1">.cls-1{fill:#444;}.cls-2{fill:#ff9f00;}.cls-3{fill:#ffd400;}</style>
  </defs>
  <g
     id="g1"
     transform="matrix(1.3381366,0,0,1.3381366,-10.820372,-10.820372)">
    <g
       id="g299"
       transform="translate(75.47297,265.8927)">
      <path
         class="st10"
         d="m -27.27297,-238.3427 c -0.3,-1.1 -0.8,-2.1 -1.3,-3.1 l 2.4,-3.4 c 0.6,-0.9 0.5,-2.1 -0.2,-2.9 l -2.5,-2.5 c -0.8,-0.8 -2,-0.9 -2.9,-0.3 l -3.5,2.3 c -1,-0.6 -2,-1 -3.1,-1.4 l -0.7,-4 c -0.2,-1.1 -1.1,-1.8 -2.2,-1.9 l -3.6,-0.1 c -1.1,0 -2,0.7 -2.3,1.8 l -0.9,4 c -0.4,0.1 -0.9,0.3 -1.3,0.5 v 0 c -0.7,0.3 -1.4,0.6 -2,0.9 l -3.4,-2.4 c -0.9,-0.6 -2.1,-0.5 -2.9,0.2 l -1.3,1.2 -1.3,1.3 c -0.8,0.8 -0.9,2 -0.3,2.9 l 2.3,3.5 c -0.6,1 -1,2 -1.4,3.1 l -4,0.7 c -1.1,0.2 -1.8,1.1 -1.9,2.2 l -0.1,3.6 c 0,1.1 0.7,2 1.8,2.3 l 4,0.9 c 0.3,1.1 0.8,2.1 1.3,3.1 l -2.4,3.4 c -0.6,0.9 -0.5,2.1 0.2,2.9 l 2.6,2.4 c 0.8,0.8 2,0.9 2.9,0.3 l 3.5,-2.3 c 1,0.6 2,1 3.1,1.4 l 0.7,4 c 0.2,1.1 1.1,1.8 2.2,1.9 l 3.6,0.1 c 1.1,0 2,-0.7 2.3,-1.8 l 0.9,-4 c 0.4,-0.1 0.9,-0.3 1.3,-0.5 v 0 c 0.7,-0.3 1.4,-0.6 2,-0.9 l 3.4,2.4 c 0.9,0.6 2.1,0.5 2.9,-0.2 l 1.3,-1.2 1.3,-1.3 c 0.8,-0.8 0.9,-2 0.3,-2.9 l -2.3,-3.5 c 0.6,-1 1,-2 1.4,-3.1 l 4,-0.7 c 1.1,-0.2 1.8,-1.1 1.9,-2.2 l 0.1,-3.6 c 0,-1.1 -0.7,-2 -1.8,-2.3 z"
         id="path293"
         style="fill:#ffffff" />
      <path
         class="st0"
         d="m -22.97297,-238.8427 -3.2,-0.7 c -0.2,-0.6 -0.5,-1.2 -0.8,-1.8 l 2,-2.8 c 1,-1.4 0.9,-3.4 -0.4,-4.7 l -2.5,-2.5 c -0.7,-0.7 -1.6,-1.1 -2.6,-1.1 -0.7,0 -1.4,0.2 -2,0.6 l -2.8,1.9 c -0.6,-0.3 -1.2,-0.6 -1.8,-0.8 l -0.6,-3.2 c -0.3,-1.7 -1.8,-3 -3.5,-3 l -3.6,-0.1 c -1.7,0 -3.2,1.2 -3.6,2.9 l -0.7,3.2 h -0.1 c -0.1,0 -0.1,0 -0.2,0 l -0.4,0.1 c -0.5,0.2 -0.9,0.4 -1.4,0.6 l -2.8,-2 c -0.6,-0.4 -1.4,-0.7 -2.1,-0.7 -1,0 -1.9,0.4 -2.6,1 l -2.5,2.5 c -1.2,1.2 -1.5,3.2 -0.5,4.6 l 1.9,2.8 c -0.3,0.6 -0.6,1.2 -0.8,1.8 l -3.2,0.6 c -1.7,0.3 -3,1.8 -3,3.5 l -0.1,3.6 c 0,1.7 1.2,3.3 2.9,3.6 l 3.2,0.7 c 0.2,0.6 0.5,1.2 0.8,1.8 l -2,2.8 c -1,1.4 -0.9,3.4 0.4,4.7 l 2.5,2.5 c 0.7,0.7 1.6,1.1 2.6,1.1 0.7,0 1.4,-0.2 2,-0.6 l 2.8,-1.9 c 0.6,0.3 1.2,0.6 1.8,0.8 l 0.6,3.2 c 0.3,1.7 1.8,3 3.5,3 l 3.6,0.1 c 1.7,0 3.2,-1.2 3.6,-2.9 l 0.7,-3.2 c 0,0 0,0 0.1,0 0.1,0 0.1,0 0.2,0 l 0.4,-0.1 c 0.5,-0.2 0.9,-0.4 1.4,-0.6 l 2.8,2 c 0.6,0.4 1.4,0.7 2.1,0.7 1,0 1.9,-0.4 2.6,-1 l 2.5,-2.5 c 1.2,-1.2 1.5,-3.2 0.5,-4.6 l -1.9,-2.8 c 0.3,-0.6 0.6,-1.2 0.8,-1.8 l 3.2,-0.6 c 1.7,-0.3 3,-1.8 3,-3.5 l 0.1,-3.6 c 0,-1.7 -1.2,-3.2 -2.9,-3.6 z"
         id="path294"
         style="opacity:0.3;fill:#ffffff;enable-background:new" />
      <path
         class="st12"
         d="m -27.27297,-238.2427 c -0.3,-1.1 -0.8,-2.1 -1.3,-3.1 l 2.4,-3.4 c 0.6,-0.9 0.5,-2.1 -0.2,-2.9 l -2.5,-2.5 c -0.8,-0.8 -2,-0.9 -2.9,-0.3 l -3.5,2.3 c -1,-0.6 -2,-1 -3.1,-1.4 l -0.7,-4 c -0.2,-1.1 -1.1,-1.8 -2.2,-1.9 l -3.6,-0.1 c -1.1,0 -2,0.7 -2.3,1.8 l -0.9,4 c -0.4,0.1 -0.9,0.3 -1.3,0.5 v 0 c -0.7,0.3 -1.4,0.6 -2,0.9 l -3.4,-2.4 c -0.9,-0.6 -2.1,-0.5 -2.9,0.2 l -1.3,1.2 -1.3,1.3 c -0.8,0.8 -0.9,2 -0.3,2.9 l 2.3,3.5 c -0.6,1 -1,2 -1.4,3.1 l -4,0.7 c -1.1,0.2 -1.8,1.1 -1.9,2.2 l -0.1,3.6 c 0,1.1 0.7,2 1.8,2.3 l 4,0.9 c 0.3,1.1 0.8,2.1 1.3,3.1 l -2.4,3.4 c -0.6,0.9 -0.5,2.1 0.2,2.9 l 2.5,2.5 c 0.8,0.8 2,0.9 2.9,0.3 l 3.5,-2.3 c 1,0.6 2,1 3.1,1.4 l 0.7,4 c 0.2,1.1 1.1,1.8 2.2,1.9 l 3.6,0.1 c 1.1,0 2,-0.7 2.3,-1.8 l 0.9,-4 c 0.4,-0.1 0.9,-0.3 1.3,-0.5 v 0 c 0.7,-0.3 1.4,-0.6 2,-0.9 l 3.4,2.4 c 0.9,0.6 2.1,0.5 2.9,-0.2 l 1.3,-1.2 1.3,-1.3 c 0.8,-0.8 0.9,-2 0.3,-2.9 l -2.3,-3.5 c 0.6,-1 1,-2 1.4,-3.1 l 4,-0.7 c 1.1,-0.2 1.8,-1.1 1.9,-2.2 l 0.1,-3.6 c 0,-1.1 -0.7,-2 -1.8,-2.3 z"
         id="path295"
         style="opacity:0.3;fill:#bbd8e8;enable-background:new" />
      <g
         id="g297"
         transform="translate(390.22703,-172.1427)">
        <path
           class="st2"
           d="m -432.4,-39.2 v 0 l -3.6,-0.1 c -1.3,0 -2.3,-0.9 -2.6,-2.2 l -0.7,-3.8 c -0.9,-0.3 -1.9,-0.8 -2.8,-1.2 l -3.3,2.2 c -1.1,0.7 -2.5,0.5 -3.4,-0.4 l -2.5,-2.5 c -0.9,-0.9 -1,-2.3 -0.3,-3.4 l 2.3,-3.3 c -0.5,-0.9 -0.8,-1.8 -1.1,-2.8 l -3.8,-0.8 c -1.2,-0.3 -2.1,-1.4 -2.1,-2.6 l 0.1,-3.6 c 0,-1.3 0.9,-2.3 2.2,-2.6 l 3.8,-0.7 c 0.3,-0.9 0.8,-1.9 1.2,-2.8 l -2.2,-3.3 c -0.7,-1.1 -0.5,-2.5 0.4,-3.4 l 2.5,-2.5 c 0.9,-0.9 2.3,-1 3.4,-0.3 l 3.3,2.3 c 0.6,-0.3 1.2,-0.6 1.8,-0.8 l 0.4,-0.1 v 0 c 0.2,-0.1 0.5,-0.2 0.7,-0.3 l 0.8,-3.8 c 0.3,-1.2 1.4,-2.1 2.7,-2.1 l 3.6,0.1 c 1.3,0 2.3,0.9 2.6,2.2 l 0.7,3.8 c 0.9,0.3 1.9,0.8 2.8,1.2 l 3.3,-2.2 c 1.1,-0.7 2.5,-0.5 3.4,0.4 l 2.5,2.5 c 0.9,0.9 1,2.3 0.3,3.4 l -2.3,3.3 c 0.5,0.9 0.8,1.8 1.1,2.8 l 3.8,0.8 c 1.2,0.3 2.1,1.4 2.1,2.6 l -0.1,3.6 c 0,1.3 -0.9,2.3 -2.2,2.6 l -3.8,0.7 c -0.3,0.9 -0.8,1.9 -1.2,2.8 l 2.2,3.5 c 0.7,1.1 0.5,2.5 -0.4,3.4 l -2.5,2.5 c -0.9,0.9 -2.3,1 -3.4,0.3 l -3.3,-2.3 c -0.6,0.3 -1.2,0.6 -1.8,0.8 l -0.4,0.1 v 0 c -0.2,0.1 -0.5,0.2 -0.7,0.3 l -0.8,3.8 c -0.3,1.1 -1.4,1.9 -2.7,1.9 z m -9.6,-8.2 0.2,0.1 c 1,0.5 2,1 3.1,1.4 l 0.2,0.1 0.8,4.2 c 0.2,0.9 0.9,1.5 1.8,1.5 l 3.6,0.1 c 0.9,0 1.7,-0.6 1.9,-1.5 l 0.9,-4.2 0.2,-0.1 c 0.4,-0.1 0.8,-0.3 1.3,-0.4 l 0.4,-0.1 v 0 c 0.6,-0.2 1.1,-0.5 1.6,-0.7 l 0.2,-0.1 3.6,2.6 c 0.7,0.5 1.8,0.4 2.4,-0.2 l 2.5,-2.5 c 0.6,-0.6 0.8,-1.6 0.3,-2.4 l -2.4,-3.7 0.1,-0.2 c 0.5,-1 1,-2 1.4,-3.1 l 0.1,-0.2 4.2,-0.8 c 0.9,-0.2 1.5,-0.9 1.5,-1.8 l 0.1,-3.6 c 0,-0.9 -0.6,-1.7 -1.5,-1.9 l -4.2,-0.9 -0.1,-0.2 c -0.3,-1.1 -0.8,-2.1 -1.3,-3.1 l -0.1,-0.2 2.6,-3.6 c 0.5,-0.7 0.4,-1.8 -0.2,-2.4 l -2.5,-2.5 c -0.6,-0.6 -1.6,-0.8 -2.4,-0.3 l -3.7,2.4 -0.2,-0.1 c -1,-0.5 -2,-1 -3.1,-1.4 l -0.2,-0.1 -0.8,-4.2 c -0.2,-0.9 -0.9,-1.5 -1.8,-1.5 l -3.6,-0.1 c -0.9,0 -1.7,0.6 -1.9,1.5 l -0.9,4.2 -0.2,0.1 c -0.4,0.1 -0.8,0.3 -1.3,0.4 l -0.4,0.1 v 0 c -0.6,0.2 -1.1,0.5 -1.6,0.8 l -0.2,0.1 -3.6,-2.6 c -0.7,-0.5 -1.8,-0.4 -2.4,0.2 l -2.5,2.5 c -0.6,0.6 -0.8,1.6 -0.3,2.4 l 2.4,3.7 -0.1,0.2 c -0.5,1 -1,2 -1.4,3.1 l -0.1,0.2 -4.2,0.8 c -0.9,0.2 -1.5,0.9 -1.5,1.8 l -0.1,3.6 c 0,0.9 0.6,1.7 1.5,1.9 l 4.2,0.9 0.1,0.2 c 0.3,1.1 0.8,2.1 1.3,3.1 l 0.1,0.2 -2.6,3.6 c -0.5,0.7 -0.4,1.8 0.2,2.4 l 2.5,2.5 c 0.6,0.6 1.6,0.8 2.4,0.3 z"
           id="path296"
           style="fill:#2f3536" />
        <path
           class="st2"
           d="m -432.4,-38.6 v 0 l -3.6,-0.1 c -1.6,0 -2.9,-1.2 -3.2,-2.7 l -0.6,-3.5 c -0.7,-0.3 -1.5,-0.6 -2.2,-1 l -3,2 c -1.3,0.8 -3,0.7 -4.1,-0.5 l -2.5,-2.5 c -1.1,-1.1 -1.2,-2.9 -0.3,-4.2 l 2.1,-3 c -0.3,-0.7 -0.6,-1.5 -0.9,-2.2 l -3.4,-0.7 c -1.5,-0.3 -2.6,-1.7 -2.6,-3.3 l 0.1,-3.6 c 0,-1.6 1.2,-2.9 2.7,-3.2 l 3.4,-0.6 c 0.3,-0.7 0.6,-1.5 1,-2.2 l -2,-3 c -0.8,-1.3 -0.7,-3 0.5,-4.1 l 2.5,-2.5 c 1.1,-1.1 2.9,-1.2 4.2,-0.3 l 3,2.1 c 0.5,-0.2 1,-0.5 1.6,-0.7 l 0.8,-0.3 0.7,-3.4 c 0.3,-1.5 1.7,-2.6 3.3,-2.6 l 3.6,0.1 c 1.6,0 2.9,1.2 3.2,2.7 l 0.6,3.5 c 0.7,0.3 1.5,0.6 2.2,1 l 3,-2 c 1.3,-0.9 3,-0.7 4.1,0.5 l 2.5,2.5 c 1.1,1.1 1.2,2.9 0.3,4.2 l -2.1,3 c 0.3,0.7 0.6,1.5 0.9,2.2 l 3.4,0.7 c 1.5,0.3 2.6,1.7 2.6,3.3 l -0.1,3.6 c 0,1.6 -1.2,2.9 -2.7,3.2 l -3.4,0.6 c -0.3,0.7 -0.6,1.5 -1,2.2 l 2,3 c 0.8,1.3 0.7,3 -0.5,4.1 l -2.5,2.5 c -1.1,1.1 -2.9,1.2 -4.2,0.3 l -3,-2.1 c -0.5,0.2 -1,0.5 -1.6,0.7 l -0.8,0.3 -0.7,3.4 c -0.4,1.6 -1.7,2.6 -3.3,2.6 z m 0,-0.7 v 0.2 z m -9.7,-8.8 0.5,0.3 c 0.9,0.5 1.9,1 3,1.3 l 0.6,0.2 0.8,4.6 c 0.1,0.6 0.6,1 1.2,1 l 3.6,0.1 c 0.6,0 1.1,-0.4 1.3,-1 l 1,-4.6 0.6,-0.2 c 0.4,-0.1 0.8,-0.3 1.2,-0.4 l 0.8,-0.3 c 0.4,-0.2 0.8,-0.4 1.2,-0.6 l 0.5,-0.3 3.9,2.8 c 0.5,0.4 1.2,0.3 1.6,-0.1 l 2.5,-2.5 c 0.4,-0.4 0.5,-1.1 0.2,-1.6 l -2.6,-4 0.3,-0.5 c 0.5,-0.9 1,-1.9 1.3,-3 l 0.2,-0.6 4.6,-0.8 c 0.6,-0.1 1,-0.6 1,-1.2 l 0.1,-3.6 c 0,-0.6 -0.4,-1.1 -1,-1.3 l -4.6,-1 -0.2,-0.6 c -0.3,-1 -0.7,-2 -1.2,-3 l -0.3,-0.5 2.8,-3.9 c 0.4,-0.5 0.3,-1.2 -0.1,-1.6 l -2.5,-2.5 c -0.4,-0.4 -1.1,-0.5 -1.6,-0.2 l -4,2.6 -0.5,-0.3 c -0.9,-0.5 -1.9,-1 -3,-1.3 l -0.6,-0.2 -0.8,-4.6 c -0.1,-0.6 -0.6,-1 -1.2,-1 l -3.6,-0.1 c -0.6,0 -1.1,0.4 -1.3,1 l -1,4.6 -0.6,0.2 c -0.4,0.1 -0.8,0.3 -1.2,0.4 l -0.8,0.3 c -0.4,0.2 -0.7,0.3 -1.1,0.5 l -0.5,0.3 -3.9,-2.8 c -0.5,-0.4 -1.2,-0.3 -1.6,0.1 l -2.5,2.5 c -0.4,0.4 -0.5,1.1 -0.2,1.6 l 2.6,4 -0.3,0.5 c -0.5,0.9 -1,1.9 -1.3,3 l -0.2,0.6 -4.6,0.8 c -0.6,0.1 -1,0.6 -1,1.2 l -0.1,3.6 c 0,0.6 0.4,1.1 1,1.3 l 4.6,1 0.2,0.6 c 0.3,1 0.7,2 1.2,3 l 0.3,0.5 -2.8,3.9 c -0.4,0.5 -0.3,1.2 0.1,1.6 l 2.5,2.5 c 0.4,0.4 1.1,0.5 1.6,0.2 z"
           id="path297"
           style="fill:#2f3536" />
      </g>
    </g>
    <g
       id="g4"
       transform="matrix(1.0042703,0,0,1.0042703,-0.13665,1.86335)"
       style="fill:#33b5d9;fill-opacity:1">
      <polygon
         class="cls-2"
         points="38.3,40.9 38.3,37.4 32,35.2 25.7,37.4 25.7,40.9 32,44.7 "
         id="polygon1"
         style="fill:#33b5d9;fill-opacity:1" />
      <polygon
         class="cls-2"
         points="26.3,28.5 19.6,33.8 22.5,36.6 30.6,33.4 30.8,29.8 26.7,25.5 37.3,25.5 33.2,29.8 33.4,33.4 41.5,36.6 44.4,33.8 37.7,28.5 45.5,32.8 46.3,32 41.8,22.8 32,19.3 22.2,22.8 17.7,32 18.5,32.8 "
         id="polygon2"
         style="fill:#33b5d9;fill-opacity:1" />
      <polygon
         class="cls-3"
         points="25.7,37.4 25.7,40.9 32,44.7 32,35.2 "
         id="polygon3"
         style="fill:#33b5d9;fill-opacity:1" />
      <polygon
         class="cls-3"
         points="22.5,36.6 30.6,33.4 30.8,29.8 26.7,25.5 32,25.5 32,19.3 22.2,22.8 17.7,32 18.5,32.8 26.3,28.5 19.6,33.8 "
         id="polygon4"
         style="fill:#33b5d9;fill-opacity:1" />
    </g>
  </g>
</svg>
