<svg id="Capa_1" data-name="Capa 1" xmlns="http://www.w3.org/2000/svg" viewBox="0 0 64 64"><defs><style>.cls-1{fill:#444;}.cls-2{fill:#ff9f00;}.cls-3{fill:#ffd400;}</style></defs><path class="cls-1" d="M13.3,48a33.1,33.1,0,0,0,2.6,2.7l1,.8-1.5,8.6,10,3.9h0l4.7-7.4a27.9,27.9,0,0,0,5-.2l5.1,7.4,4.9-2.2L50,59.4l-2-8.7a29.8,29.8,0,0,0,3.5-3.6l8.6,1.5,3.9-10-7.4-4.7a27.9,27.9,0,0,0-.2-5l7.4-5.1L59.4,14l-8.7,2a29.8,29.8,0,0,0-3.6-3.5l1.5-8.6L38.6,0,33.9,7.4a27.9,27.9,0,0,0-5,.2L23.8.2,18.9,2.4,14,4.6h0l2,8.7a33.1,33.1,0,0,0-2.7,2.6l-.8,1L3.9,15.4,0,25.4l7.4,4.7v1.2a16.2,16.2,0,0,0,.2,3.8L.2,40.2h0L4.6,50h0ZM24.8,15.7a17.8,17.8,0,1,1-9.1,23.5A17.9,17.9,0,0,1,24.8,15.7Z"/><polygon class="cls-2" points="38.3 37.4 32 35.2 32 35.2 32 35.2 25.7 37.4 25.7 40.9 32 44.7 32 44.7 32 44.7 38.3 40.9 38.3 37.4"/><polygon class="cls-2" points="37.7 28.5 45.5 32.8 46.3 32 41.8 22.8 32 19.3 22.2 22.8 17.7 32 18.5 32.8 26.3 28.5 19.6 33.8 22.5 36.6 30.6 33.4 30.8 29.8 26.7 25.5 37.3 25.5 33.2 29.8 33.4 33.4 41.5 36.6 44.4 33.8 37.7 28.5"/><polygon class="cls-3" points="25.7 37.4 25.7 40.9 32 44.7 32 44.7 32 44.7 32 35.2 32 35.2 25.7 37.4"/><polygon class="cls-3" points="22.2 22.8 17.7 32 18.5 32.8 26.3 28.5 19.6 33.8 22.5 36.6 30.6 33.4 30.8 29.8 26.7 25.5 32 25.5 32 19.3 22.2 22.8"/></svg>