<?xml version="1.0" encoding="UTF-8"?>
<svg fill="none" viewBox="0 0 64 64" xmlns="http://www.w3.org/2000/svg">
<rect x="5" y="9" width="54" height="50" rx="8" fill="#193539"/>
<rect x="5" y="5" width="54" height="50" rx="8" fill="url(#d)"/>
<rect x="5" y="5" width="54" height="50" rx="8" fill="#8CD7E4"/>
<mask id="e" x="5" y="5" width="54" height="50" style="mask-type:alpha" maskUnits="userSpaceOnUse">
<rect x="5" y="5" width="54" height="50" rx="8" fill="url(#c)"/>
</mask>
<g mask="url(#e)">
<circle cx="31.52" cy="29.3" r="13.52" fill="url(#b)"/>
<circle cx="31.52" cy="29.3" r="13.52" fill="#fff"/>
<path d="m31.73 36.59c-3.024 0.648-20.88-4.77-29.43-6.75l-3.78 6.75c7.47 0.36 23.436 1.512 27.54 3.24s25.83-1.26 36.18-2.97c0.81-3.24 1.728-9.018-1.08-6.21-3.51 3.51-12.15 4.59-17.55 4.59s-8.1 0.54-11.88 1.35z" fill="#51B6C4"/>
<path d="m61.16 36.59c-5.4 2.16-11.477 1.1478-17.55 2.16-22.68 3.78-30.429-6.8357-41.31-1.89l-3.78 8.37c7.47 0.36 23.436 1.512 27.54 3.24s25.83-1.26 36.18-2.97l0.0079-0.0317c0.8137-3.2546 2.5872-10.348-1.0879-8.8783z" fill="#3B818B"/>
<path d="m45.156 36.356c-0.0384 2.8712 0.1633 2.7655 1.5604 5.0413 0.8066 0.7538 1.474 1.6564 2.0021 2.7079 0.6578 0 1.4788 0.0624 2.0262 0.5714 0.2304 0.216 0.5569 0.8786 0.1728 1.0418h-3.4809l-0.5425-0.2496c-1.2995-1.1878-2.4297-2.4736-3.5721-3.793-0.4638-0.412-2.2786-3.115-2.6243-3.7728l0.1372-0.1114 0.1297-0.4321c1.4067-1.2291 2.7079-2.5542 3.9946-3.9034l0.4369-0.1056c-0.1968 1.0178-0.2257 1.9685-0.2401 3.0007v0.0048z" fill="#1D2B2A"/>
<path d="m31.113 38.689c-0.6386 1.0082-1.2243 2.0405-1.7573 3.1016l-0.0912 0.2688c0.0816 1.1907 1.1111 2.1462 2.5495 2.1462 0.5137 0.0864 0.8594 0.6587 0.8594 1.2675 0.0672 0.3649-0.1825 0.2304-0.4129 0.24-0.9747 0.0385-1.9685 0-2.948 0-0.9986-0.5377-2.7463-1.8244-3.2168-2.8807-0.3006-0.6832-0.0816-1.474-0.0816-1.474 0.4225-1.109 0.701-2.1269 0.4177-3.3032l-0.1372-0.1527 2.0241-2.2527c1.037 0.2929 2.0309 0.6818 3.068 0.9794 0.9048 0.2497 0.1044 1.686-0.2737 2.0598z" fill="#1B2726"/>
<path d="m45.036 26.874c0.4465-0.0769 1.6804-0.2833 2.0117-0.4514 0.3313-0.168 0.4369-0.7826 0.8738-1.0466 0.8258-0.4945 1.4836 0 1.1955 0.893 0.9075-0.1152 2.7991 0.5281 3.2408 1.3203 0.1105 0.1969 0.1633 0.8739 0.3121 1.1859 0.2545 0.5186 1.0467 1.0083 1.0083 1.6229-0.0192 0.3312-1.4452 2.4678-2.0885 2.1077-2.6743-1.3252-4.1147-1.3203-6.1936 0.845-1.1393 1.1845-3.7383 3.3522-4.6476 4.8396-1.1715 1.0419-1.9877 2.391-2.5686 3.8314l-0.1681 0.4033c-0.1488 0.216-0.7106 1.6084-0.4609 1.6948 0.8402-0.1392 1.9589 0.893 1.3587 1.594-1.0802 0-2.1605 0.0096-3.2408 0-0.9746-0.3121-0.7538-2.5158-0.5041-3.332 0 0 0.2485-2.2123 0.4513-2.9048 0.2785-0.7585 0.3361-1.4019 0.1729-1.9252-0.8018 0.024-3.5865-0.0433-4.0523-0.5138l-0.3889-0.1392-2.9479-0.9891-1.618 1.8293-0.557 0.5714c-1.0802 1.0082-2.2757 1.882-3.5625 2.6118l-0.7201 0.4033c-1.306 0.4273-4.4748 2.295-1.7573 3.1976 0.3649 0.2593 0.7682 1.0179 0.2401 1.1859h-3.2408c-0.8499-0.3361-0.6098-1.7668-0.437-2.535l0.5426-1.8485c-0.1051-0.6658 0.2603-1.413 0.8354-1.8485 1.4788-0.7489 2.4678-1.8292 2.8423-3.4808l0.5473-1.7093c-0.238 0.6931-0.9794 1.6709-0.9794 1.6709s-1.7236 2.1989-2.4102 2.7847c-1.4599 1.24-3.712 2.3269-5.6654 2.0357-2.1756-0.3212-3.8521-2.4006-3.3801-4.6524 0.89011-2.5437 2.8106-2.3036 2.4966 0.4657 0.0817 4.2299 6.0544 0.4273 6.9522-1.7284 0.803-1.3106 1.4869-2.6769 2.343-3.961 2.511-3.7786 5.2765-4.3307 9.6648-3.7738 2.3238 0.5762 4.6476 0.8162 6.9666 0.725 1.9245-0.5651 2.7146-1.5844 7.5379-0.9842l-0.0048 0.0048z" fill="#223231"/>
<rect x="-1.48" y="44.96" width="66.42" height="15.66" fill="#244E54"/>
</g>
<rect x="5.7" y="5.7" width="52.6" height="48.6" rx="7.3" stroke="url(#a)" stroke-width="1.4" style="mix-blend-mode:soft-light"/>
<defs>
<linearGradient id="d" x1="32" x2="32" y1="5" y2="32" gradientUnits="userSpaceOnUse">
<stop stop-color="#FFBB47" offset="0"/>
<stop stop-color="#FFE98C" offset="1"/>
</linearGradient>
<linearGradient id="c" x1="4.2928" x2="62.355" y1="54.994" y2="43.794" gradientUnits="userSpaceOnUse">
<stop stop-color="#3C7881" offset="0"/>
<stop stop-color="#0F4148" offset="1"/>
</linearGradient>
<linearGradient id="b" x1="31.52" x2="31.52" y1="15.78" y2="42.82" gradientUnits="userSpaceOnUse">
<stop stop-color="#F2B33E" offset="0"/>
<stop stop-color="#E27C2A" offset="1"/>
</linearGradient>
<linearGradient id="a" x1="32" x2="32" y1=".99999" y2="61" gradientUnits="userSpaceOnUse">
<stop stop-color="#fff" stop-opacity=".9" offset="0"/>
<stop stop-color="#fff" stop-opacity=".1" offset="1"/>
</linearGradient>
</defs>
</svg>
